<svg version="1.1" id="Layer_1" xmlns="http://www.w3.org/2000/svg" xmlns:xlink="http://www.w3.org/1999/xlink" x="0px" y="0px"
	 width="100%" viewBox="0 0 225 225" enable-background="new 0 0 225 225" xml:space="preserve">
<path fill="#FEFEFD" opacity="1.000000" stroke="none" 
	d="
M128.000000,226.000000 
	C85.333336,226.000000 43.166672,226.000000 1.000006,226.000000 
	C1.000004,151.000000 1.000004,76.000015 1.000002,1.000016 
	C75.999992,1.000010 150.999985,1.000010 225.999969,1.000005 
	C225.999985,75.999985 225.999985,150.999969 226.000000,225.999969 
	C193.500000,226.000000 161.000000,226.000000 128.000000,226.000000 
M145.780533,155.813599 
	C124.449768,133.190292 103.150833,110.536842 81.769516,87.961418 
	C75.044662,80.860985 66.599274,80.779991 59.887119,87.861900 
	C56.817665,91.100456 53.873043,94.663696 51.749870,98.558357 
	C40.210415,119.725876 28.989548,141.066849 17.529791,162.278305 
	C16.064463,164.990555 16.319962,166.995422 17.886581,169.529800 
	C35.573681,198.142670 60.662296,216.041901 93.840271,222.327179 
	C117.627708,226.833496 140.436935,223.347366 162.054291,212.920197 
	C202.621399,193.352631 227.189728,150.669449 223.760483,105.728333 
	C223.049576,96.411674 220.681351,87.221474 219.076965,77.972992 
	C218.552719,78.008942 218.028488,78.044891 217.504257,78.080841 
	C216.616730,79.436234 215.688522,80.766907 214.847748,82.150711 
	C201.058334,104.846298 187.308441,127.565941 173.486679,150.241791 
	C166.913071,161.026398 157.063568,163.162598 145.780533,155.813599 
M104.323784,90.181320 
	C117.428177,104.158623 130.488312,118.177795 143.654526,132.096634 
	C150.889709,139.745407 161.388336,138.422867 166.614090,129.365799 
	C179.674393,106.730171 192.633286,84.034775 205.897202,61.519085 
	C208.106033,57.769566 207.987747,55.248058 205.446533,51.823822 
	C178.948227,16.118025 144.583817,-1.705820 99.432091,4.892243 
	C91.828590,6.003349 83.974121,6.728250 76.801842,9.245152 
	C26.440508,26.918009 -3.627142,77.028824 4.043332,129.872162 
	C4.685640,134.297165 5.836733,138.648315 7.021194,144.327042 
	C8.768359,141.759216 9.637184,140.580688 10.404771,139.339569 
	C24.763170,116.123436 39.117767,92.904945 53.454948,69.675705 
	C60.531139,58.210793 72.963661,56.872246 82.304520,66.685997 
	C89.540985,74.288826 96.666008,81.997719 104.323784,90.181320 
z"/>
<path fill="#FEB915" opacity="1.000000" stroke="none" 
	d="
M146.065308,156.044205 
	C157.063568,163.162598 166.913071,161.026398 173.486679,150.241791 
	C187.308441,127.565941 201.058334,104.846298 214.847748,82.150711 
	C215.688522,80.766907 216.616730,79.436234 217.504257,78.080841 
	C218.028488,78.044891 218.552719,78.008942 219.076965,77.972992 
	C220.681351,87.221474 223.049576,96.411674 223.760483,105.728333 
	C227.189728,150.669449 202.621399,193.352631 162.054291,212.920197 
	C140.436935,223.347366 117.627708,226.833496 93.840271,222.327179 
	C60.662296,216.041901 35.573681,198.142670 17.886581,169.529800 
	C16.319962,166.995422 16.064463,164.990555 17.529791,162.278305 
	C28.989548,141.066849 40.210415,119.725876 51.749870,98.558357 
	C53.873043,94.663696 56.817665,91.100456 59.887119,87.861900 
	C66.599274,80.779991 75.044662,80.860985 81.769516,87.961418 
	C103.150833,110.536842 124.449768,133.190292 146.065308,156.044205 
z"/>
<path fill="#8A4E22" opacity="1.000000" stroke="none" 
	d="
M104.082184,89.920395 
	C96.666008,81.997719 89.540985,74.288826 82.304520,66.685997 
	C72.963661,56.872246 60.531139,58.210793 53.454948,69.675705 
	C39.117767,92.904945 24.763170,116.123436 10.404771,139.339569 
	C9.637184,140.580688 8.768359,141.759216 7.021194,144.327042 
	C5.836733,138.648315 4.685640,134.297165 4.043332,129.872162 
	C-3.627142,77.028824 26.440508,26.918009 76.801842,9.245152 
	C83.974121,6.728250 91.828590,6.003349 99.432091,4.892243 
	C144.583817,-1.705820 178.948227,16.118025 205.446533,51.823822 
	C207.987747,55.248058 208.106033,57.769566 205.897202,61.519085 
	C192.633286,84.034775 179.674393,106.730171 166.614090,129.365799 
	C161.388336,138.422867 150.889709,139.745407 143.654526,132.096634 
	C130.488312,118.177795 117.428177,104.158623 104.082184,89.920395 
z"/>
</svg>